HIERARCHY
ROOT Hips
{
	OFFSET 0.000000 71.427986 0.000000
	CHANNELS 6 Xposition Yposition Zposition Xrotation Yrotation Zrotation
	JOINT Pelvis
	{
		OFFSET 0.000000 0.000000 0.000000
		CHANNELS 3 Xrotation Yrotation Zrotation
		JOINT LeftUpLeg
		{
			OFFSET 6.797100 -2.508499 -1.318700
			CHANNELS 3 Xrotation Yrotation Zrotation
			JOINT LeftLeg
			{
				OFFSET 0.069008 -29.241863 0.690200
				CHANNELS 3 Xrotation Yrotation Zrotation
				JOINT LeftFoot
				{
					OFFSET -0.069008 -29.568123 -0.266800
					CHANNELS 3 Xrotation Yrotation Zrotation
					JOINT LeftToeBase
					{
						OFFSET 3.145500 -8.631000 16.059900
						CHANNELS 3 Xrotation Yrotation Zrotation
						End Site
						{
							OFFSET 0.000000 18.501587 0.000000
						}
					}
				}
			}
			JOINT Left_ShortSleeve
			{
				OFFSET 0.265923 -10.480953 1.153800
				CHANNELS 3 Xrotation Yrotation Zrotation
				End Site
				{
					OFFSET 1.725763 19.823879 0.000000
				}
			}
		}
		JOINT RightUpLeg
		{
			OFFSET -6.797100 -2.508499 -1.318700
			CHANNELS 3 Xrotation Yrotation Zrotation
			JOINT RightLeg
			{
				OFFSET -0.082453 -29.241932 0.688000
				CHANNELS 3 Xrotation Yrotation Zrotation
				JOINT RightFoot
				{
					OFFSET 0.082453 -29.568058 -0.264600
					CHANNELS 3 Xrotation Yrotation Zrotation
					JOINT RightToeBase
					{
						OFFSET -3.115300 -8.682800 16.113400
						CHANNELS 3 Xrotation Yrotation Zrotation
						End Site
						{
							OFFSET 0.000000 18.567114 0.000000
						}
					}
				}
			}
			JOINT Right_ShortSleeve
			{
				OFFSET -0.265923 -10.480953 1.153800
				CHANNELS 3 Xrotation Yrotation Zrotation
				End Site
				{
					OFFSET -1.725766 19.823910 0.000000
				}
			}
		}
	}
	JOINT Spine
	{
		OFFSET 0.000000 13.368103 0.470500
		CHANNELS 3 Xrotation Yrotation Zrotation
		JOINT Spine1
		{
			OFFSET 0.147000 13.837402 0.538800
			CHANNELS 3 Xrotation Yrotation Zrotation
			JOINT Spine2
			{
				OFFSET 0.168000 16.242897 -1.435500
				CHANNELS 3 Xrotation Yrotation Zrotation
				JOINT Neck
				{
					OFFSET 0.217200 18.631500 -1.679100
					CHANNELS 3 Xrotation Yrotation Zrotation
					JOINT Head
					{
						OFFSET 0.000000 6.599396 1.385900
						CHANNELS 3 Xrotation Yrotation Zrotation
						JOINT Hat
						{
							OFFSET -0.532200 27.220596 -10.096100
							CHANNELS 3 Xrotation Yrotation Zrotation
							End Site
							{
								OFFSET 0.000000 22.029861 0.000000
							}
						}
						JOINT HairD
						{
							OFFSET -10.777400 17.437393 -1.325900
							CHANNELS 3 Xrotation Yrotation Zrotation
							JOINT HairD1
							{
								OFFSET -3.290299 -11.051193 1.062200
								CHANNELS 3 Xrotation Yrotation Zrotation
								End Site
								{
									OFFSET 0.000000 11.579437 0.000000
								}
							}
						}
						JOINT HairB
						{
							OFFSET -10.777400 17.437393 1.467900
							CHANNELS 3 Xrotation Yrotation Zrotation
							JOINT HairB1
							{
								OFFSET -1.561200 -12.956299 3.590200
								CHANNELS 3 Xrotation Yrotation Zrotation
								End Site
								{
									OFFSET 0.000000 13.534866 0.000000
								}
							}
						}
						JOINT HairA
						{
							OFFSET 9.713100 17.437393 1.467900
							CHANNELS 3 Xrotation Yrotation Zrotation
							JOINT HairA1
							{
								OFFSET 1.561200 -12.956299 3.590200
								CHANNELS 3 Xrotation Yrotation Zrotation
								End Site
								{
									OFFSET 0.000000 13.534866 0.000000
								}
							}
						}
						JOINT HairC
						{
							OFFSET 9.713100 17.437393 -1.325900
							CHANNELS 3 Xrotation Yrotation Zrotation
							JOINT HairC1
							{
								OFFSET 3.290300 -11.051193 1.062200
								CHANNELS 3 Xrotation Yrotation Zrotation
								End Site
								{
									OFFSET 0.000000 11.579437 0.000000
								}
							}
						}
					}
				}
				JOINT LeftShoulder
				{
					OFFSET 5.101800 15.108002 -2.763700
					CHANNELS 3 Xrotation Yrotation Zrotation
					JOINT LeftArm
					{
						OFFSET 9.825497 2.506317 -1.597400
						CHANNELS 3 Xrotation Yrotation Zrotation
						JOINT LeftForeArm
						{
							OFFSET 21.966244 0.000000 0.000000
							CHANNELS 3 Xrotation Yrotation Zrotation
							JOINT LeftHand
							{
								OFFSET 33.879036 0.000000 0.000000
								CHANNELS 3 Xrotation Yrotation Zrotation
								JOINT LeftHandThumb1
								{
									OFFSET 6.715286 -2.359680 3.363841
									CHANNELS 3 Xrotation Yrotation Zrotation
									JOINT LeftHandThumb2
									{
										OFFSET 2.507072 -1.447464 1.447461
										CHANNELS 3 Xrotation Yrotation Zrotation
										JOINT LeftHandThumb3
										{
											OFFSET 2.898338 -1.673355 1.673357
											CHANNELS 3 Xrotation Yrotation Zrotation
											End Site
											{
												OFFSET -0.295959 3.727692 -0.131651
											}
										}
									}
								}
								JOINT LeftHandIndex1
								{
									OFFSET 14.190811 -0.254547 3.840278
									CHANNELS 3 Xrotation Yrotation Zrotation
									JOINT LeftHandIndex2
									{
										OFFSET 3.551727 0.000000 -0.000000
										CHANNELS 3 Xrotation Yrotation Zrotation
										JOINT LeftHandIndex3
										{
											OFFSET 2.894196 0.000000 0.000000
											CHANNELS 3 Xrotation Yrotation Zrotation
											End Site
											{
												OFFSET -1.000603 2.690872 0.366626
											}
										}
									}
								}
								JOINT LeftHandMiddle1
								{
									OFFSET 13.776489 0.000000 0.000000
									CHANNELS 3 Xrotation Yrotation Zrotation
									JOINT LeftHandMiddle2
									{
										OFFSET 3.438232 0.000000 0.000000
										CHANNELS 3 Xrotation Yrotation Zrotation
										JOINT LeftHandMiddle3
										{
											OFFSET 3.691551 0.000000 0.000000
											CHANNELS 3 Xrotation Yrotation Zrotation
											End Site
											{
												OFFSET -1.082298 3.499527 0.457670
											}
										}
									}
								}
								JOINT LeftHandRing1
								{
									OFFSET 13.966164 -0.268127 -3.067488
									CHANNELS 3 Xrotation Yrotation Zrotation
									JOINT LeftHandRing2
									{
										OFFSET 3.162567 0.000000 0.000000
										CHANNELS 3 Xrotation Yrotation Zrotation
										JOINT LeftHandRing3
										{
											OFFSET 3.324348 0.000000 0.000000
											CHANNELS 3 Xrotation Yrotation Zrotation
											End Site
											{
												OFFSET -0.861900 3.184998 0.405154
											}
										}
									}
								}
								JOINT LeftHandPinky1
								{
									OFFSET 13.131393 -0.168503 -5.746925
									CHANNELS 3 Xrotation Yrotation Zrotation
									JOINT LeftHandPinky2
									{
										OFFSET 2.849182 0.000000 0.000000
										CHANNELS 3 Xrotation Yrotation Zrotation
										JOINT LeftHandPinky3
										{
											OFFSET 2.805038 0.000000 0.000000
											CHANNELS 3 Xrotation Yrotation Zrotation
											End Site
											{
												OFFSET -0.882500 2.642609 0.325652
											}
										}
									}
								}
							}
							JOINT Left_Sleeve
							{
								OFFSET 6.592125 -0.646545 0.805568
								CHANNELS 3 Xrotation Yrotation Zrotation
								End Site
								{
									OFFSET -0.000179 20.275787 -0.000000
								}
							}
						}
					}
				}
				JOINT RightShoulder
				{
					OFFSET -5.731700 15.108002 -2.763700
					CHANNELS 3 Xrotation Yrotation Zrotation
					JOINT RightArm
					{
						OFFSET -9.825497 2.506317 -1.597400
						CHANNELS 3 Xrotation Yrotation Zrotation
						JOINT RightForeArm
						{
							OFFSET -21.966242 0.000000 0.000000
							CHANNELS 3 Xrotation Yrotation Zrotation
							JOINT RightHand
							{
								OFFSET -33.879032 0.000000 0.000000
								CHANNELS 3 Xrotation Yrotation Zrotation
								JOINT RightHandThumb1
								{
									OFFSET -6.715286 -2.359680 3.363841
									CHANNELS 3 Xrotation Yrotation Zrotation
									JOINT RightHandThumb2
									{
										OFFSET -2.507072 -1.447464 1.447461
										CHANNELS 3 Xrotation Yrotation Zrotation
										JOINT RightHandThumb3
										{
											OFFSET -2.898338 -1.673355 1.673357
											CHANNELS 3 Xrotation Yrotation Zrotation
											End Site
											{
												OFFSET 0.295959 3.727692 -0.131651
											}
										}
									}
								}
								JOINT RightHandIndex1
								{
									OFFSET -14.190811 -0.254547 3.840278
									CHANNELS 3 Xrotation Yrotation Zrotation
									JOINT RightHandIndex2
									{
										OFFSET -3.551727 0.000000 -0.000000
										CHANNELS 3 Xrotation Yrotation Zrotation
										JOINT RightHandIndex3
										{
											OFFSET -2.894196 0.000000 0.000000
											CHANNELS 3 Xrotation Yrotation Zrotation
											End Site
											{
												OFFSET 1.000603 2.690872 0.366626
											}
										}
									}
								}
								JOINT RightHandMiddle1
								{
									OFFSET -13.776489 0.000000 0.000000
									CHANNELS 3 Xrotation Yrotation Zrotation
									JOINT RightHandMiddle2
									{
										OFFSET -3.438232 0.000000 0.000000
										CHANNELS 3 Xrotation Yrotation Zrotation
										JOINT RightHandMiddle3
										{
											OFFSET -3.691551 0.000000 0.000000
											CHANNELS 3 Xrotation Yrotation Zrotation
											End Site
											{
												OFFSET 1.082298 3.499527 0.457670
											}
										}
									}
								}
								JOINT RightHandRing1
								{
									OFFSET -13.966164 -0.268127 -3.067488
									CHANNELS 3 Xrotation Yrotation Zrotation
									JOINT RightHandRing2
									{
										OFFSET -3.162567 0.000000 0.000000
										CHANNELS 3 Xrotation Yrotation Zrotation
										JOINT RightHandRing3
										{
											OFFSET -3.324348 0.000000 0.000000
											CHANNELS 3 Xrotation Yrotation Zrotation
											End Site
											{
												OFFSET 0.861900 3.184998 0.405154
											}
										}
									}
								}
								JOINT RightHandPinky1
								{
									OFFSET -13.131393 -0.168503 -5.746925
									CHANNELS 3 Xrotation Yrotation Zrotation
									JOINT RightHandPinky2
									{
										OFFSET -2.849182 0.000000 0.000000
										CHANNELS 3 Xrotation Yrotation Zrotation
										JOINT RightHandPinky3
										{
											OFFSET -2.805038 0.000000 0.000000
											CHANNELS 3 Xrotation Yrotation Zrotation
											End Site
											{
												OFFSET 0.882500 2.642609 0.325652
											}
										}
									}
								}
							}
							JOINT Right_Sleeve
							{
								OFFSET -6.592125 -0.646545 0.805568
								CHANNELS 3 Xrotation Yrotation Zrotation
								End Site
								{
									OFFSET 0.000179 20.275787 -0.000000
								}
							}
						}
					}
				}
				JOINT Bind_Right_JacketString
				{
					OFFSET -3.534800 11.969597 7.200700
					CHANNELS 3 Xrotation Yrotation Zrotation
					JOINT Bind_Right_JacketString1
					{
						OFFSET -0.319900 -6.102600 2.794100
						CHANNELS 3 Xrotation Yrotation Zrotation
						End Site
						{
							OFFSET 0.000000 6.719452 0.000000
						}
					}
				}
				JOINT Bind_Left_JacketString
				{
					OFFSET 2.904800 11.969597 7.200700
					CHANNELS 3 Xrotation Yrotation Zrotation
					JOINT Bind_Left_JacketString1
					{
						OFFSET 0.364800 -5.904503 3.186800
						CHANNELS 3 Xrotation Yrotation Zrotation
						End Site
						{
							OFFSET 0.000000 6.719513 0.000000
						}
					}
				}
				JOINT HairE
				{
					OFFSET 5.915200 17.612701 -11.592200
					CHANNELS 3 Xrotation Yrotation Zrotation
					JOINT HairE1
					{
						OFFSET 0.289200 -7.171898 -1.284500
						CHANNELS 3 Xrotation Yrotation Zrotation
						End Site
						{
							OFFSET 0.000000 7.291756 0.000000
						}
					}
				}
				JOINT HairF
				{
					OFFSET -0.864800 17.612701 -11.592200
					CHANNELS 3 Xrotation Yrotation Zrotation
					JOINT HairF1
					{
						OFFSET 0.000000 -14.087097 -2.127501
						CHANNELS 3 Xrotation Yrotation Zrotation
						End Site
						{
							OFFSET 0.000000 14.246841 0.000000
						}
					}
				}
				JOINT HairG
				{
					OFFSET -8.087700 17.612701 -11.592200
					CHANNELS 3 Xrotation Yrotation Zrotation
					JOINT HairG1
					{
						OFFSET -0.293600 -6.081398 -0.910100
						CHANNELS 3 Xrotation Yrotation Zrotation
						End Site
						{
							OFFSET 0.000000 6.156120 0.000000
						}
					}
				}
			}
		}
	}
	JOINT Pouch
	{
		OFFSET 0.000000 4.394501 10.847300
		CHANNELS 3 Xrotation Yrotation Zrotation
		End Site
		{
			OFFSET 0.000000 21.880577 0.000000
		}
	}
	JOINT Bag
	{
		OFFSET -13.229000 4.813004 -0.593300
		CHANNELS 3 Xrotation Yrotation Zrotation
		End Site
		{
			OFFSET 0.000000 21.880577 0.000000
		}
	}
	JOINT OccupyGuyFacialAnim_Joint
	{
		OFFSET 1.000000 -70.206398 -1.655000
		CHANNELS 3 Xrotation Yrotation Zrotation
		End Site
		{
			OFFSET 0.000000 21.880577 0.000000
		}
	}
}
MOTION
Frames: 4
Frame Time: 0.033333
3.133131 66.279930 -0.143183 -92.147380 -91.168142 -91.262891 -0.000000 0.000000 0.000000 -29.715448 35.844006 33.086819 29.701696 -10.203474 1.080066 -6.562606 5.877165 -14.744918 0.000000 0.000000 -0.000000 -0.000002 0.000002 0.000002 -26.925261 -14.360976 -21.664177 16.942462 9.950400 -3.643607 1.802291 13.504713 18.001141 0.000000 0.000000 0.000000 -0.000000 0.000000 -0.000002 7.361675 -2.394244 -7.478207 3.908295 -0.640495 -1.385851 3.915506 -0.604357 -1.412666 -13.180637 5.961122 4.467988 20.932914 76.614054 -26.056028 0.000002 0.000000 0.000000 0.000002 0.000000 0.000000 0.000002 0.000000 0.000000 0.000002 0.000000 0.000000 0.000002 0.000000 -0.000000 0.000002 0.000000 0.000000 0.000002 0.000000 -0.000000 0.000002 0.000000 0.000000 0.000002 0.000000 0.000000 5.397561 -2.637133 11.851829 -43.096865 4.754831 0.920256 1.924684 -13.660254 1.254076 -49.072843 -5.234150 0.769578 40.109944 -15.297175 -0.360471 5.639938 28.097742 11.338735 0.000001 -0.000001 0.000001 6.882283 2.840033 -61.140500 8.247952 7.640028 -89.897891 0.000004 0.000002 0.000004 -2.345527 4.688860 -62.655265 8.754184 9.897070 -87.051260 0.000002 -0.000000 -0.000006 -9.042487 10.045577 -60.766199 8.524033 9.508889 -66.892919 -0.000000 0.000000 0.000005 -17.946769 14.755013 -51.485925 8.868346 8.666990 -84.811989 0.000001 -0.000001 0.000001 0.000000 0.000001 0.000000 -2.660539 1.513364 -18.841203 -53.869299 51.786006 46.804903 3.614844 129.872755 -0.746494 -70.568299 1.252357 -24.902417 0.277489 -1.521499 -1.570517 7.169055 -41.689651 -15.773501 -0.000005 0.000001 -0.000000 6.412823 -12.738404 14.389581 9.941734 -7.465136 101.743242 -0.000000 -0.000001 0.000000 2.653196 -11.302335 44.730940 9.916108 -9.880658 94.351181 -0.000000 -0.000004 0.000000 2.140159 -7.454445 61.765011 9.609238 -8.992503 89.388694 -0.000000 0.000002 -0.000001 -4.886655 -23.798146 68.396148 13.518291 -7.949268 112.864956 -0.000001 0.000000 -0.000001 -0.000000 -0.000000 -0.000000 -0.000003 -0.000001 -0.000000 -0.000002 0.000000 0.000000 -0.000003 -0.000001 -0.000001 -0.000003 -0.000001 -0.000001 -0.000003 -0.000001 -0.000000 -0.000002 0.000000 0.000001 -0.000003 -0.000001 -0.000001 -0.000003 -0.000001 -0.000001 -0.000003 -0.000001 -0.000000 -0.000002 0.000000 0.000001 -0.000000 0.000000 0.000000 -0.000000 0.000000 0.000000 -0.000000 0.000000 0.000000 
3.135814 66.282074 -0.142967 -92.551536 -91.202580 -91.695016 -0.000000 -0.000000 -0.000000 -29.770486 35.816914 33.111073 29.705886 -10.201247 1.079614 -6.560377 5.874319 -14.741980 0.000000 -0.000005 -0.000000 -0.000001 0.000001 -0.000000 -26.906634 -14.369919 -21.623573 16.863969 9.914696 -3.643631 1.840687 13.509783 18.009006 -0.000000 -0.000000 -0.000000 -0.000002 0.000003 -0.000000 7.338311 -2.398932 -7.495662 3.857622 -0.636878 -1.379797 3.864674 -0.602107 -1.406009 -12.982322 5.939404 4.456714 20.866928 76.614649 -26.109462 -0.000000 0.000000 0.000000 -0.000000 0.000000 0.000000 -0.000000 0.000000 0.000000 -0.000000 0.000000 0.000000 -0.000000 0.000000 0.000000 -0.000000 0.000000 0.000000 -0.000000 0.000000 0.000000 -0.000000 0.000000 0.000000 -0.000000 0.000000 0.000000 5.402990 -2.718115 11.913290 -43.022682 4.799960 0.962212 2.098690 -13.609959 1.311542 -49.060316 -5.255183 0.770608 40.109951 -15.297179 -0.360473 5.639936 28.097747 11.338735 -0.000001 0.000001 0.000000 6.882281 2.840035 -61.140500 8.247950 7.640028 -89.897898 0.000002 -0.000002 -0.000002 -2.345528 4.688861 -62.655265 8.754185 9.897070 -87.051266 0.000002 -0.000000 -0.000003 -9.042493 10.045577 -60.766199 8.524029 9.508887 -66.892919 -0.000002 -0.000000 -0.000003 -17.946775 14.755017 -51.485932 8.868347 8.666990 -84.811996 0.000001 -0.000001 0.000003 0.000000 -0.000002 -0.000001 -2.672268 1.441132 -19.006057 -53.889018 51.700912 46.823764 3.587150 129.791394 -0.759143 -70.562138 1.387743 -24.771699 0.277487 -1.521498 -1.570516 7.169051 -41.689651 -15.773501 0.000002 -0.000001 0.000000 6.412824 -12.738403 14.389581 9.941729 -7.465138 101.743236 -0.000000 -0.000003 0.000002 2.653196 -11.302334 44.730940 9.916104 -9.880660 94.351181 0.000001 -0.000000 0.000001 2.140160 -7.454445 61.765018 9.609233 -8.992503 89.388694 0.000003 0.000001 0.000000 -4.886653 -23.798145 68.396148 13.518291 -7.949264 112.864956 -0.000001 0.000001 0.000001 -0.000000 -0.000000 0.000000 -0.000001 0.000000 0.000000 0.000001 -0.000000 -0.000000 -0.000001 0.000000 0.000000 -0.000001 0.000000 0.000000 -0.000001 0.000000 0.000000 0.000001 -0.000000 0.000000 -0.000001 0.000000 0.000000 -0.000001 0.000000 0.000000 -0.000001 0.000000 0.000000 0.000001 -0.000000 0.000000 -0.000000 -0.000000 -0.000000 -0.000000 -0.000000 -0.000000 -0.000000 -0.000000 -0.000000 
3.137780 66.286003 -0.146234 -92.860322 -91.254319 -92.043301 -0.000000 -0.000000 -0.000000 -29.840967 35.782371 33.143257 29.695125 -10.196735 1.079547 -6.548946 5.871989 -14.744533 -0.000000 -0.000002 0.000000 -0.000003 0.000001 0.000001 -26.891807 -14.380280 -21.564464 16.785371 9.873294 -3.643942 1.872181 13.512477 18.012696 -0.000000 0.000000 -0.000000 -0.000001 0.000000 -0.000000 7.326472 -2.403614 -7.510585 3.796906 -0.636347 -1.362949 3.803796 -0.602481 -1.388554 -12.787061 5.931655 4.429701 20.834182 76.615427 -26.132362 -0.000000 0.000001 0.000000 -0.000000 0.000001 0.000000 -0.000000 0.000001 0.000000 -0.000000 0.000001 0.000000 -0.000000 -0.000000 -0.000000 -0.000000 0.000001 0.000000 -0.000000 -0.000000 -0.000000 -0.000000 0.000001 0.000000 -0.000000 0.000001 0.000000 5.408037 -2.802444 11.979006 -42.957269 4.873052 1.004087 2.226925 -13.582612 1.357646 -49.048586 -5.294022 0.767830 40.109944 -15.297179 -0.360470 5.639941 28.097742 11.338737 0.000001 -0.000000 0.000002 6.882280 2.840033 -61.140500 8.247948 7.640023 -89.897891 0.000001 0.000003 -0.000001 -2.345528 4.688859 -62.655265 8.754183 9.897070 -87.051266 0.000004 -0.000002 -0.000003 -9.042491 10.045578 -60.766199 8.524033 9.508886 -66.892919 -0.000002 0.000002 -0.000007 -17.946776 14.755015 -51.485932 8.868347 8.666991 -84.811989 0.000002 -0.000001 0.000003 -0.000002 0.000001 -0.000000 -2.676867 1.370868 -19.204043 -53.973504 51.611911 46.898135 3.515479 129.717737 -0.744800 -70.568449 1.494451 -24.664378 0.277488 -1.521497 -1.570516 7.169054 -41.689654 -15.773497 0.000003 0.000000 0.000003 6.412824 -12.738401 14.389578 9.941729 -7.465136 101.743242 -0.000003 0.000001 0.000000 2.653198 -11.302333 44.730940 9.916105 -9.880658 94.351181 0.000003 0.000000 0.000001 2.140159 -7.454444 61.765018 9.609235 -8.992502 89.388701 0.000002 -0.000002 -0.000001 -4.886652 -23.798148 68.396162 13.518294 -7.949264 112.864956 0.000003 -0.000000 0.000002 0.000000 -0.000001 -0.000000 0.000000 -0.000000 -0.000000 0.000000 0.000000 -0.000001 0.000000 -0.000000 -0.000000 0.000000 -0.000000 -0.000000 0.000000 -0.000000 -0.000000 0.000000 0.000000 -0.000000 0.000000 -0.000000 -0.000000 0.000000 -0.000000 -0.000000 0.000000 -0.000000 -0.000000 0.000000 0.000000 -0.000000 -0.000000 -0.000000 -0.000000 -0.000000 -0.000000 -0.000000 -0.000000 -0.000000 -0.000000 
3.136210 66.293320 -0.153719 -93.203266 -91.325066 -92.442321 -0.000000 -0.000000 0.000000 -29.922109 35.740669 33.188214 29.649810 -10.186199 1.080523 -6.515792 5.871745 -14.760812 -0.000000 0.000000 0.000000 -0.000000 -0.000001 -0.000000 -26.869168 -14.411713 -21.480438 16.666560 9.838372 -3.643193 1.918728 13.516601 18.013135 0.000000 -0.000000 -0.000000 0.000003 -0.000000 -0.000002 7.326520 -2.408971 -7.526814 3.719762 -0.644334 -1.339819 3.726650 -0.610402 -1.364890 -12.603182 5.916802 4.424938 20.954935 76.611923 -26.232496 0.000001 0.000000 0.000000 0.000001 0.000000 0.000000 0.000001 0.000000 0.000000 0.000001 0.000000 0.000000 0.000001 0.000000 -0.000000 0.000001 0.000000 0.000000 0.000001 0.000000 -0.000000 0.000001 0.000000 0.000000 0.000001 0.000000 0.000000 5.393236 -2.878670 11.930792 -42.891303 4.912094 1.155583 2.341007 -13.675190 1.406097 -49.038685 -5.283988 0.796243 40.109944 -15.297177 -0.360472 5.639944 28.097739 11.338736 -0.000001 0.000001 0.000001 6.882278 2.840032 -61.140500 8.247951 7.640023 -89.897891 0.000003 0.000002 -0.000003 -2.345532 4.688859 -62.655265 8.754188 9.897074 -87.051260 0.000001 0.000000 -0.000001 -9.042489 10.045576 -60.766199 8.524032 9.508891 -66.892926 0.000001 0.000000 -0.000002 -17.946769 14.755015 -51.485932 8.868346 8.666988 -84.811989 -0.000001 -0.000000 0.000001 -0.000002 -0.000001 -0.000000 -2.677727 1.301891 -19.418899 -54.076674 51.518993 46.990646 3.415353 129.666606 -0.714727 -70.579282 1.600816 -24.576556 0.277490 -1.521498 -1.570516 7.169055 -41.689644 -15.773504 -0.000001 -0.000001 0.000002 6.412826 -12.738404 14.389581 9.941735 -7.465136 101.743236 0.000001 0.000002 0.000002 2.653199 -11.302336 44.730943 9.916106 -9.880659 94.351188 -0.000000 -0.000000 -0.000001 2.140161 -7.454445 61.765018 9.609232 -8.992502 89.388701 0.000002 0.000004 -0.000003 -4.886651 -23.798148 68.396155 13.518292 -7.949266 112.864956 -0.000001 0.000001 -0.000001 -0.000000 -0.000002 0.000000 -0.000001 0.000000 0.000000 -0.000001 0.000000 0.000000 -0.000001 0.000000 -0.000001 -0.000001 0.000000 -0.000001 -0.000001 0.000000 0.000000 -0.000001 0.000000 0.000000 -0.000001 0.000000 -0.000001 -0.000001 0.000000 -0.000001 -0.000001 0.000000 0.000000 -0.000001 0.000000 0.000000 -0.000000 -0.000000 0.000000 -0.000000 -0.000000 0.000000 -0.000000 -0.000000 0.000000 
